<svg xmlns="http://www.w3.org/2000/svg" width="840" height="1040" viewBox="0 0 840 1040">
  <defs>
    <linearGradient id="paper" x1="0" y1="0" x2="0" y2="1">
      <stop offset="0%" stop-color="#f4e6cf"/>
      <stop offset="100%" stop-color="#dcc9a7"/>
    </linearGradient>
    <linearGradient id="stem" x1="0" y1="0" x2="1" y2="1">
      <stop offset="0%" stop-color="#476a43"/>
      <stop offset="100%" stop-color="#7a9a63"/>
    </linearGradient>
    <radialGradient id="petal" cx="50%" cy="45%" r="65%">
      <stop offset="0%" stop-color="#d7a86d"/>
      <stop offset="100%" stop-color="#7f5631"/>
    </radialGradient>
  </defs>
  <rect x="0" y="0" width="840" height="1040" fill="url(#paper)"/>
  <rect x="22" y="22" width="796" height="996" rx="12" fill="none" stroke="#82684a" stroke-width="4" opacity="0.55"/>
  <path d="M410 870 C390 705, 410 580, 430 430 C445 310, 435 210, 415 120" fill="none" stroke="url(#stem)" stroke-width="18" stroke-linecap="round"/>
  <path d="M430 460 C510 420, 585 385, 665 335" fill="none" stroke="#628058" stroke-width="12" stroke-linecap="round"/>
  <path d="M415 560 C330 510, 255 460, 190 380" fill="none" stroke="#5f7b53" stroke-width="12" stroke-linecap="round"/>
  <ellipse cx="665" cy="335" rx="82" ry="46" fill="#7fa06f" opacity="0.82" transform="rotate(-28 665 335)"/>
  <ellipse cx="188" cy="380" rx="76" ry="42" fill="#6e8c61" opacity="0.82" transform="rotate(36 188 380)"/>
  <ellipse cx="420" cy="260" rx="130" ry="130" fill="url(#petal)" opacity="0.94"/>
  <circle cx="420" cy="260" r="54" fill="#f2d9ab" opacity="0.9"/>
  <circle cx="420" cy="260" r="18" fill="#8b5d2f" opacity="0.85"/>
  <text x="420" y="960" text-anchor="middle" font-family="serif" font-size="30" fill="#6a553d" opacity="0.9">Desktop HUD Showcase</text>
</svg>
